<svg xmlns="http://www.w3.org/2000/svg" width="16" height="16" viewBox="0 0 25.2 18">
<defs>
</defs>
<g transform="translate(0 -2)">
<g data-name="Group 2163" transform="translate(0 2)">
<path d="M12.347 10.213L9.23 7.484.316 15.125a1.825 1.825 0 0 0 1.244.488h21.575a1.811 1.811 0 0 0 1.238-.488l-8.908-7.641z" fill="#204b5c" data-name="Path 1040" transform="translate(.253 2.387)"></path>
<path d="M24.377 2.488A1.813 1.813 0 0 0 23.133 2H1.558a1.805 1.805 0 0 0-1.24.491L12.346 12.8z" fill="#204b5c" data-name="Path 1041" transform="translate(.254 -2)"></path>
<path d="M0 2.878v14.954l8.7-7.392z" fill="#204b5c" data-name="Path 1042" transform="translate(0 -1.298)"></path>
<path d="M9.167 10.442l8.7 7.393V2.875z" fill="#204b5c" data-name="Path 1043" transform="translate(7.334 -1.3)"></path>
</g>
</g>
</svg>